<svg xmlns="http://www.w3.org/2000/svg" viewBox="0 0 1440 320"><path fill="#f7f7f7" fill-opacity="1" d="M0,128L24,133.3C48,139,96,149,144,154.7C192,160,240,160,288,133.3C336,107,384,53,432,37.3C480,21,528,43,576,85.3C624,128,672,192,720,208C768,224,816,192,864,176C912,160,960,160,1008,165.3C1056,171,1104,181,1152,192C1200,203,1248,213,1296,192C1344,171,1392,117,1416,90.7L1440,64L1440,320L1416,320C1392,320,1344,320,1296,320C1248,320,1200,320,1152,320C1104,320,1056,320,1008,320C960,320,912,320,864,320C816,320,768,320,720,320C672,320,624,320,576,320C528,320,480,320,432,320C384,320,336,320,288,320C240,320,192,320,144,320C96,320,48,320,24,320L0,320Z"></path></svg>