<svg xmlns="http://www.w3.org/2000/svg" xmlns:xlink="http://www.w3.org/1999/xlink" version="1.1" width="1000" height="1000" viewBox="0 0 1000 1000" xml:space="preserve">
<desc>Created with Fabric.js 3.5.0</desc>
<defs>
</defs>
<rect x="0" y="0" width="100%" height="100%" fill="rgba(255,255,255,0)"/>
<g transform="matrix(7.5758 0 0 7.5758 500.0025 500.0013)" id="290557">
<g style="" vector-effect="non-scaling-stroke">
		<g transform="matrix(8.3333 0 0 8.3333 -42.0084 15.8916)">
<path style="stroke: none; stroke-width: 1; stroke-dasharray: none; stroke-linecap: butt; stroke-dashoffset: 0; stroke-linejoin: miter; stroke-miterlimit: 4; is-custom-font: none; font-file-url: none; fill: rgb(10,207,131); fill-rule: nonzero; opacity: 1;" transform=" translate(-2.156, -5.507)" d="M 2.156 6.46 c 0.526 0 0.953 -0.427 0.953 -0.953 v -0.953 h -0.953 c -0.526 0 -0.953 0.427 -0.953 0.953 s 0.427 0.953 0.953 0.953 z" stroke-linecap="round"/>
</g>
		<g transform="matrix(8.3333 0 0 8.3333 -42.0167 0.0042)">
<path style="stroke: none; stroke-width: 1; stroke-dasharray: none; stroke-linecap: butt; stroke-dashoffset: 0; stroke-linejoin: miter; stroke-miterlimit: 4; is-custom-font: none; font-file-url: none; fill: rgb(162,89,255); fill-rule: nonzero; opacity: 1;" transform=" translate(-2.155, -3.6005)" d="M 1.202 3.6 c 0 -0.526 0.427 -0.953 0.953 -0.953 h 0.953 v 1.907 h -0.953 c -0.526 0 -0.953 -0.427 -0.953 -0.953 z" stroke-linecap="round"/>
</g>
		<g transform="matrix(8.3333 0 0 8.3333 -42.0167 -15.8875)">
<path style="stroke: none; stroke-width: 1; stroke-dasharray: none; stroke-linecap: butt; stroke-dashoffset: 0; stroke-linejoin: miter; stroke-miterlimit: 4; is-custom-font: none; font-file-url: none; fill: rgb(242,78,30); fill-rule: nonzero; opacity: 1;" transform=" translate(-2.155, -1.6935)" d="M 1.202 1.693 c 0 -0.526 0.427 -0.953 0.953 -0.953 h 0.953 v 1.907 h -0.953 c -0.526 0 -0.953 -0.427 -0.953 -0.953 z" stroke-linecap="round"/>
</g>
		<g transform="matrix(8.3333 0 0 8.3333 -26.2 -15.8917)">
<path style="stroke: none; stroke-width: 1; stroke-dasharray: none; stroke-linecap: butt; stroke-dashoffset: 0; stroke-linejoin: miter; stroke-miterlimit: 4; is-custom-font: none; font-file-url: none; fill: rgb(255,114,98); fill-rule: nonzero; opacity: 1;" transform=" translate(-4.053, -1.693)" d="M 3.1 0.74 h 0.953 c 0.526 0 0.953 0.427 0.953 0.953 s -0.427 0.953 -0.953 0.953 H 3.1 z" stroke-linecap="round"/>
</g>
		<g transform="matrix(8.3333 0 0 8.3333 -26.1583 0)">
<path style="stroke: none; stroke-width: 1; stroke-dasharray: none; stroke-linecap: butt; stroke-dashoffset: 0; stroke-linejoin: miter; stroke-miterlimit: 4; is-custom-font: none; font-file-url: none; fill: rgb(26,188,254); fill-rule: nonzero; opacity: 1;" transform=" translate(-4.058, -3.6)" d="M 5.016 3.6 c 0 0.526 -0.427 0.953 -0.953 0.953 S 3.1 4.126 3.1 3.6 s 0.427 -0.953 0.953 -0.953 s 0.953 0.427 0.953 0.953 z" stroke-linecap="round"/>
</g>
		<g transform="matrix(8.3333 0 0 8.3333 4.0208 -0.0088)">
<path style="stroke: none; stroke-width: 1; stroke-dasharray: none; stroke-linecap: butt; stroke-dashoffset: 0; stroke-linejoin: miter; stroke-miterlimit: 4; is-custom-font: none; font-file-url: none; fill: rgb(255,255,255); fill-rule: nonzero; opacity: 1;" transform=" translate(-7.6795, -3.5989)" d="M 6.058 2.32 v 1.998 h 0.257 v -0.954 h 0.618 v -0.248 h -0.618 V 2.57 h 0.803 v -0.25 z m 1.525 0.406 c 0.093 0 0.168 -0.075 0.168 -0.168 S 7.675 2.4 7.583 2.4 s -0.168 0.075 -0.168 0.168 c 0 0.045 0.018 0.087 0.05 0.12 s 0.074 0.05 0.12 0.05 z m -0.13 0.252 v 1.34 H 7.7 v -1.34 h -0.255 z m 1.212 -0.04 c -0.342 0 -0.58 0.3 -0.58 0.632 s 0.24 0.63 0.58 0.63 a 0.51 0.51 0 0 0 0.379 -0.159 v 0.178 a 0.42 0.42 0 0 1 -0.116 0.287 a 0.4 0.4 0 0 1 -0.286 0.12 a 0.42 0.42 0 0 1 -0.228 -0.076 l -0.13 0.223 a 0.66 0.66 0 0 0 1.017 -0.557 v -1.24 h -0.257 v 0.12 a 0.51 0.51 0 0 0 -0.379 -0.159 z m -0.322 0.632 a 0.35 0.35 0 0 1 0.166 -0.33 c 0.114 -0.07 0.257 -0.07 0.37 0 s 0.177 0.198 0.166 0.33 a 0.35 0.35 0 0 1 -0.166 0.33 c -0.114 0.07 -0.257 0.07 -0.37 0 s -0.177 -0.198 -0.166 -0.33 z" stroke-linecap="round"/>
</g>
		<g transform="matrix(8.3333 0 0 8.3333 35.3458 0.3204)">
<path style="stroke: none; stroke-width: 1; stroke-dasharray: none; stroke-linecap: butt; stroke-dashoffset: 0; stroke-linejoin: miter; stroke-miterlimit: 4; is-custom-font: none; font-file-url: none; fill: rgb(255,255,255); fill-rule: nonzero; opacity: 1;" transform=" translate(-11.4385, -3.6384)" d="M 10.228 3.2 a 0.28 0.28 0 0 0 -0.279 0.279 v 0.848 h -0.257 v -1.34 h 0.257 V 3.1 c 0.078 -0.104 0.202 -0.164 0.332 -0.162 c 0.164 -0.004 0.317 0.084 0.398 0.227 c 0.1 -0.14 0.244 -0.225 0.4 -0.227 c 0.293 0 0.475 0.236 0.476 0.528 v 0.853 h -0.257 v -0.85 a 0.28 0.28 0 0 0 -0.427 -0.276 a 0.28 0.28 0 0 0 -0.124 0.276 v 0.848 H 10.5 V 3.47 a 0.28 0.28 0 0 0 -0.279 -0.279 z m 2.7 -0.07 a 0.62 0.62 0 0 0 -0.453 -0.191 c -0.383 0 -0.65 0.324 -0.65 0.7 s 0.27 0.7 0.65 0.7 a 0.62 0.62 0 0 0 0.453 -0.191 V 4.3 h 0.257 V 2.96 h -0.257 z m -0.85 0.52 c -0.013 -0.16 0.065 -0.314 0.202 -0.398 s 0.3 -0.084 0.446 0 a 0.43 0.43 0 0 1 0.202 0.398 c 0.013 0.16 -0.065 0.314 -0.202 0.398 s -0.3 0.084 -0.446 0 a 0.43 0.43 0 0 1 -0.202 -0.398 z" stroke-linecap="round"/>
</g>
</g>
</g>
</svg>